<svg xmlns="http://www.w3.org/2000/svg" xmlns:xlink="http://www.w3.org/1999/xlink" width="197" height="86" viewBox="0 0 197 86">
  <defs>
    <filter id="Rectangle_7358" x="-9" y="-6" width="215" height="104" filterUnits="userSpaceOnUse">
      <feOffset dy="3" input="SourceAlpha"/>
      <feGaussianBlur stdDeviation="3" result="blur"/>
      <feFlood flood-color="#1dbbbe" flood-opacity="0.102"/>
      <feComposite operator="in" in2="blur"/>
      <feComposite in="SourceGraphic"/>
    </filter>
    <clipPath id="clip-path">
      <g transform="matrix(1, 0, 0, 1, 0, 0)" filter="url(#Rectangle_7358)">
        <rect id="Rectangle_7358-2" data-name="Rectangle 7358" width="197" height="86" rx="16" transform="translate(688 5257)" fill="#fff"/>
      </g>
    </clipPath>
  </defs>
  <g id="Alibaba" transform="translate(-688 -5257)" clip-path="url(#clip-path)">
    <g id="alibaba-2" data-name="alibaba" transform="translate(701.348 5214.848)">
      <path id="Path_1009" data-name="Path 1009" d="M0,0H170.3V170.3H0Z" fill="#fff" fill-rule="evenodd"/>
      <path id="Path_1010" data-name="Path 1010" d="M30.183,61.542a3.656,3.656,0,0,1-1.281-.681c-3.643-3.482,1-7.565,6.364-9.926V44.211c1.281.761,1.921.84,2,.96l4.083-4.083-1.362-3.442C52,33.484,56.839,31.883,66.6,30.242l-1.76-1.6,2.882-1.68c6.565,2.2,12.688,2.762,11.648,8.246.279-3.683-4.325-5.124-11.448-7.125l-1.322.84,2.6,2.161A157.423,157.423,0,0,0,41.79,38.328l1.121,3.041-4.244,4.2A18.368,18.368,0,0,0,54.638,42.85c.04-.04.16-.08.16-.161a11.643,11.643,0,0,0-1.4-1.362,3.734,3.734,0,0,1,3.442,4.243H55.8a2.955,2.955,0,0,0-.32-1.881,20.284,20.284,0,0,1-18.932,2.962v5.2c-2.923,1-8.085,4.2-8.045,7.285a2.881,2.881,0,0,0,1.681,2.4Z" transform="translate(27.061 26.429)" fill-rule="evenodd"/>
      <path id="Path_1011" data-name="Path 1011" d="M75.989,61.272C69.544,64.594,63.38,67.2,53.774,67.556c-12.368-.241-14.289-8.486-8.406-17.092C50.892,41.78,59.7,33.894,73.747,28.971a51.71,51.71,0,0,1,15.771-3.122c8.285-.08,16.329,2.522,15.811,10.407-.281,6.084-9.046,14.689-13.65,20.854-2,2.682-2.321,4.4,1.041,4.282,12.209-.8,23.375-5.042,33.623-9.445-6.885,4.683-42.987,22.573-43.188,10.366a9.678,9.678,0,0,1,1.961-4.883,59.91,59.91,0,0,1,4.4-5.443c2.442-2.8,8.524-9.526,10.566-13.568,3.442-7.6-4.283-8.006-10.927-10.366l-2.882,1.68,1.72,1.6c-9.726,1.641-14.569,3.242-26.577,7.4L62.78,42.18,58.7,46.263c-.08-.12-.72-.2-2-.96v6.725c-5.363,2.361-10.007,6.444-6.364,9.926a3.642,3.642,0,0,0,1.281.681h-.041C58.178,66.356,76.029,61.272,75.989,61.272ZM34.842,78.964V75.842h4.563v3.121Zm.2,12.847V80.686h4.243V91.811H35.043Zm95.382-9.805a4.083,4.083,0,1,1,0,8.166,4.083,4.083,0,1,1,0-8.166Zm0,10.086a6,6,0,1,0-4.247-1.756A5.987,5.987,0,0,0,130.425,92.092Zm-21.813-.281h1.881v-1.72h-1.881ZM122.9,90.372a5.863,5.863,0,0,1-4.162,1.72,5.984,5.984,0,0,1,0-11.967,6.135,6.135,0,0,1,4.162,1.72,8.746,8.746,0,0,0-.84,1.921,3.987,3.987,0,0,0-3.322-1.76,4.1,4.1,0,0,0,0,8.205,4.178,4.178,0,0,0,3.362-1.762A7.945,7.945,0,0,0,122.9,90.372Zm16.17,1.439V80.686h1.68v1.56a4.03,4.03,0,0,1,3.4-1.841,3.791,3.791,0,0,1,2,.521,2.843,2.843,0,0,1,1.122,1.441,4.069,4.069,0,0,1,3.442-1.962,3.356,3.356,0,0,1,2.522.922,3.97,3.97,0,0,1,.92,2.841v7.644h-1.881v-7a5.083,5.083,0,0,0-.2-1.641,1.543,1.543,0,0,0-.641-.8,2.179,2.179,0,0,0-1.161-.321,2.628,2.628,0,0,0-1.921.8,3.418,3.418,0,0,0-.8,2.482v6.483h-1.881V84.568a3.349,3.349,0,0,0-.44-1.881,1.871,1.871,0,0,0-1.522-.641,2.9,2.9,0,0,0-1.479.44,2.4,2.4,0,0,0-.961,1.2,7.105,7.105,0,0,0-.321,2.363v5.761H139.07Zm14.37-13.567V76.121h-.8v-.279h1.921v.279h-.8v2.122Zm1.4,0v-2.4h.48l.6,1.72a1.843,1.843,0,0,0,.119.36,1.083,1.083,0,0,1,.121-.4l.561-1.68h.44v2.4h-.321v-2l-.68,2h-.319l-.681-2.042v2.042h-.321Zm-54.2,11.928a4.2,4.2,0,0,1-2,1.4,3.4,3.4,0,0,1-.6.2,9.943,9.943,0,0,1-2.56.281,5.134,5.134,0,0,1-3.243-.88,2.822,2.822,0,0,1-1.161-2.482,3.756,3.756,0,0,1,.44-1.8A3.666,3.666,0,0,1,92.8,85.567a4.98,4.98,0,0,1,1.881-.6,31.2,31.2,0,0,1,3.362-.159h2.521v-.322a1.7,1.7,0,0,0-.52-1.362,2.284,2.284,0,0,0-1.562-.48h-.44a3.3,3.3,0,0,0-1.28.321,1.4,1.4,0,0,0-.68,1H91.8a3.33,3.33,0,0,1,1.841-2.683,10.334,10.334,0,0,1,4.4-.84,2.137,2.137,0,0,1,.521-.04,8.143,8.143,0,0,1,4.6,1.041,3.7,3.7,0,0,1,1.521,3.243v5.643a4.441,4.441,0,0,0,.042.8,3.253,3.253,0,0,0,.161.68h-3.963a3.334,3.334,0,0,1-.2-.68,4.447,4.447,0,0,1-.08-.759v-.2h0Zm-2.6-.521a3.029,3.029,0,0,0,1.762-.68,2.35,2.35,0,0,0,.759-1.881v-.239h-.359a17.57,17.57,0,0,0-2.162.08,6.144,6.144,0,0,0-1.521.279,1.247,1.247,0,0,0-1,1.2.986.986,0,0,0,.52.922,3.334,3.334,0,0,0,1.6.319h.4ZM85.236,85.928a3.377,3.377,0,0,0-.84-2.4,2.836,2.836,0,0,0-2.2-.88h-.04a2.844,2.844,0,0,0-2.282.88,4.436,4.436,0,0,0,0,5.084,2.866,2.866,0,0,0,2.242.88h.04a2.835,2.835,0,0,0,2.242-.92,3.879,3.879,0,0,0,.84-2.642ZM82.153,80.6a5.943,5.943,0,0,1,1.72-.2A5.379,5.379,0,0,1,89.6,86.168a6.145,6.145,0,0,1-1.481,4.323,5.525,5.525,0,0,1-4.162,1.562,6.458,6.458,0,0,1-1.8-.241,3.665,3.665,0,0,1-.922-.359,5.87,5.87,0,0,1-2.121-1.72v.319a6.221,6.221,0,0,1-.04.88,6.554,6.554,0,0,1-.08.88H74.708q.06-.72.12-1.32c.039-.44.039-.84.039-1.2V75.843H79.11v6.444a5.774,5.774,0,0,1,2.161-1.4,3.261,3.261,0,0,1,.883-.281Zm-14.21,9.567a4.329,4.329,0,0,1-2.041,1.4,2.072,2.072,0,0,1-.6.2,9.625,9.625,0,0,1-2.522.281,5.259,5.259,0,0,1-3.282-.88,2.919,2.919,0,0,1-1.161-2.482,3.359,3.359,0,0,1,.481-1.8,3.66,3.66,0,0,1,1.28-1.322,4.764,4.764,0,0,1,1.841-.6,32.463,32.463,0,0,1,3.363-.159h2.522a.237.237,0,0,1,.041-.161v-.161a1.841,1.841,0,0,0-.52-1.362,2.283,2.283,0,0,0-1.56-.48H65.3a3.091,3.091,0,0,0-1.24.321,1.3,1.3,0,0,0-.681,1H59.058a3.379,3.379,0,0,1,1.881-2.683,10.129,10.129,0,0,1,4.363-.84,2.478,2.478,0,0,1,.52-.04,8.3,8.3,0,0,1,4.643,1.041,3.675,3.675,0,0,1,1.482,3.243v5.643c0,.321.04.6.04.8a3.3,3.3,0,0,0,.2.68H68.225a1.91,1.91,0,0,1-.2-.68,4.442,4.442,0,0,1-.08-.759v-.2h0ZM65.3,89.65a2.831,2.831,0,0,0,1.762-.68,2.231,2.231,0,0,0,.76-1.881v-.239H67.5a18.257,18.257,0,0,0-2.2.08,5.779,5.779,0,0,0-1.481.279c-.68.239-1.041.641-1.041,1.2a1.062,1.062,0,0,0,.52.922,3.331,3.331,0,0,0,1.6.319h.4ZM52.494,85.928a3.357,3.357,0,0,0-.8-2.4,2.837,2.837,0,0,0-2.2-.88h-.08a2.811,2.811,0,0,0-2.242.88,4.436,4.436,0,0,0,0,5.084,2.81,2.81,0,0,0,2.242.88,2.868,2.868,0,0,0,2.282-.92A3.867,3.867,0,0,0,52.494,85.928ZM49.412,80.6a6.231,6.231,0,0,1,1.761-.2,5.585,5.585,0,0,1,4.163,1.562,5.7,5.7,0,0,1,1.521,4.2,5.969,5.969,0,0,1-1.482,4.323,5.428,5.428,0,0,1-4.123,1.562,6.972,6.972,0,0,1-1.841-.241,5.378,5.378,0,0,1-.921-.359,5.731,5.731,0,0,1-2.082-1.72v.319c0,.321-.04.6-.04.88-.04.281-.08.6-.12.88H41.967a8.031,8.031,0,0,0,.12-1.32c.04-.44.08-.84.08-1.2V75.843H46.41v6.444a5.946,5.946,0,0,1,2.121-1.4,3.727,3.727,0,0,1,.88-.281ZM16.39,75.842h3.043l7.8,15.969H22.114l-1.4-3.241H12.027l-1.481,3.241h-4.8l8.286-15.969Zm0,9.646h2.842L16.51,79.364l-.121.279-2.881,5.845H16.39Zm11.569,6.323V75.842H32.2V91.811Z" transform="translate(5.629 25.337)" fill="#d9783e" fill-rule="evenodd"/>
    </g>
  </g>
</svg>
