<svg xmlns="http://www.w3.org/2000/svg" xmlns:xlink="http://www.w3.org/1999/xlink" width="197" height="86" viewBox="0 0 197 86">
  <defs>
    <filter id="Rectangle_7357" x="-9" y="-6" width="215" height="104" filterUnits="userSpaceOnUse">
      <feOffset dy="3" input="SourceAlpha"/>
      <feGaussianBlur stdDeviation="3" result="blur"/>
      <feFlood flood-color="#1dbbbe" flood-opacity="0.102"/>
      <feComposite operator="in" in2="blur"/>
      <feComposite in="SourceGraphic"/>
    </filter>
    <clipPath id="clip-path">
      <g transform="matrix(1, 0, 0, 1, 0, 0)" filter="url(#Rectangle_7357)">
        <rect id="Rectangle_7357-2" data-name="Rectangle 7357" width="197" height="86" rx="16" transform="translate(341 5257)" fill="#fff"/>
      </g>
    </clipPath>
  </defs>
  <g id="DHL" transform="translate(-341 -5257)" clip-path="url(#clip-path)">
    <g id="dhl-express" transform="translate(341 5269.555)">
      <path id="Path_1004" data-name="Path 1004" d="M197,0V43.474H0V0Z" fill="#fc0"/>
      <path id="Path_1005" data-name="Path 1005" d="M34.644,7.807,28.35,16.358h34.3c1.734,0,1.711.659.864,1.807-.861,1.165-2.3,3.192-3.178,4.376-.445.6-1.249,1.7,1.416,1.7H75.783s2.261-3.077,4.156-5.649c2.579-3.5.224-10.78-8.994-10.78Z" fill="#d2002e"/>
      <path id="Path_1006" data-name="Path 1006" d="M25.8,35.665,38.446,18.488H54.133c1.734,0,1.711.659.864,1.807-.861,1.165-2.325,3.171-3.2,4.355-.445.6-1.249,1.7,1.416,1.7H74.228c-1.748,2.395-7.417,9.318-17.6,9.318H25.8Zm72.4-9.321-6.856,9.32H73.265s6.852-9.318,6.858-9.318Zm27.7-2.108H81.676l12.1-16.429H111.85l-6.933,9.421h8.07l6.936-9.421H138Zm-1.553,2.11L117.5,35.665H99.419s6.852-9.318,6.858-9.318h18.078ZM0,30.021H26.641L25.186,32H0Zm0-3.674H29.348L27.89,28.324H0ZM0,33.7H23.936l-1.448,1.967H0ZM197,32H170.461l1.457-1.979H197Zm0,3.664-29.236,0,1.448-1.97H197Zm-22.379-9.318H197v1.978l-23.834,0ZM163.036,7.807,150.942,24.236H131.786s12.1-16.429,12.1-16.429h19.147Zm-32.8,18.54s-1.322,1.806-1.963,2.674c-2.271,3.069-.263,6.644,7.147,6.644h29.034l6.858-9.318Z" fill="#d2002e"/>
      <path id="Path_1007" data-name="Path 1007" d="M0,50.542H197v.985H0Zm0,4.6H197v.985H0Zm0,4.594H197v.985H0Z" fill="#fc0"/>
      <path id="Path_1008" data-name="Path 1008" d="M66.151,60.717H72.08l.946-1.283H68.614l2.474-3.353h4.018l.947-1.283H72.035l2.194-2.973h4.412l.947-1.283H73.659Zm7.276,0h1.819l6.2-4.314-.061,4.314H83.3l.014-5.32,7.145-4.854H88.729l-5.688,3.906.062-3.906H81.284l-.055,4.883Zm19.325-8.891h1.289c.94,0,1.991.466,1.044,1.749a4.467,4.467,0,0,1-3.446,1.793h-1.5l2.614-3.542Zm-8.078,8.891h1.516l3-4.067h1.486a7.476,7.476,0,0,0,6-3.061c1.71-2.318.444-3.047-1.724-3.047H92.183L84.675,60.717Zm8.731,0h1.516L98.257,56.2h.909c.8,0,1.3,0,1.043.991l-.981,3.528h1.729l.989-4.052c.129-.627.063-.845-.278-1.021l.022-.029a6.283,6.283,0,0,0,3.894-2.318c1.8-2.434.016-2.755-2.077-2.755h-2.593L93.406,60.717Zm8.078-8.891h1.455c1.4,0,1.693.583,1.015,1.5a4.285,4.285,0,0,1-3.462,1.589H99.2l2.281-3.09Zm1.043,8.891h5.929l.946-1.283h-4.412l2.474-3.353h4.018l.946-1.283h-4.018l2.194-2.973h4.412l.947-1.283h-5.928Zm20.74-9.985a5.078,5.078,0,0,0-1.991-.365,6.978,6.978,0,0,0-5.44,2.77c-2.334,3.163,2.677,2.536,1,4.81a4.452,4.452,0,0,1-3.3,1.662,3.94,3.94,0,0,1-1.833-.5l-1.152,1.356a4.7,4.7,0,0,0,1.857.423,7.5,7.5,0,0,0,6.1-3.033c2.474-3.352-2.409-2.9-.967-4.853a3.519,3.519,0,0,1,2.85-1.356,2.983,2.983,0,0,1,1.674.423l1.2-1.341Zm7.581,0a5.077,5.077,0,0,0-1.991-.365,6.978,6.978,0,0,0-5.44,2.77c-2.334,3.163,2.677,2.536,1,4.81a4.452,4.452,0,0,1-3.3,1.662,3.936,3.936,0,0,1-1.833-.5l-1.152,1.356a4.7,4.7,0,0,0,1.856.423,7.5,7.5,0,0,0,6.1-3.033c2.474-3.352-2.408-2.9-.967-4.853a3.519,3.519,0,0,1,2.85-1.356,2.982,2.982,0,0,1,1.674.423Z" fill="#d2002e"/>
    </g>
  </g>
</svg>
