<svg id="mada" xmlns="http://www.w3.org/2000/svg" width="93.208" height="31.087" viewBox="0 0 93.208 31.087">
  <rect id="Rectangle_7052" data-name="Rectangle 7052" width="39.428" height="13.134" transform="translate(0 17.922)" fill="#84b740"/>
  <rect id="Rectangle_7053" data-name="Rectangle 7053" width="39.428" height="13.146" fill="#259bd6"/>
  <path id="Path_629" data-name="Path 629" d="M385.852,268.826l-.176.035a5.749,5.749,0,0,1-1.276.163c-1.031,0-2.248-.526-2.248-3.008,0-1.276.21-2.974,2.13-2.974h.012a5.771,5.771,0,0,1,1.4.27l.152.047v5.467Zm.316-12.373-.316.058V261.1l-.281-.082-.082-.023a6.465,6.465,0,0,0-1.744-.3c-3.84,0-4.648,2.9-4.648,5.338,0,3.336,1.873,5.256,5.139,5.256a10.419,10.419,0,0,0,3.43-.48,1.516,1.516,0,0,0,1.287-1.662V255.972c-.908.163-1.862.328-2.786.48" transform="translate(-306.996 -240.438)" fill="#27292d"/>
  <path id="Path_630" data-name="Path 630" d="M441.5,286.743l-.163.047-.586.152a6.1,6.1,0,0,1-1.417.223c-.908,0-1.44-.445-1.44-1.206,0-.491.223-1.322,1.7-1.322H441.5v2.107Zm-1.346-8.277a12.957,12.957,0,0,0-3.91.679l-.984.293.328,2.225.959-.316a11.278,11.278,0,0,1,3.2-.538c.421,0,1.709,0,1.709,1.394v.609h-1.79c-3.266,0-4.776,1.037-4.776,3.277,0,1.908,1.394,3.056,3.734,3.056a12.064,12.064,0,0,0,2.593-.351l.047-.012.047.012.293.047c.908.163,1.862.328,2.786.5v-7.307c0-2.365-1.426-3.57-4.238-3.57" transform="translate(-351.227 -258.272)" fill="#27292d"/>
  <path id="Path_631" data-name="Path 631" d="M331.681,286.743l-.163.047-.585.152a6.017,6.017,0,0,1-1.417.223c-.908,0-1.44-.445-1.44-1.206,0-.491.223-1.322,1.685-1.322h1.908v2.107Zm-1.334-8.277a12.894,12.894,0,0,0-3.91.679l-.984.293.328,2.225.959-.316a11.278,11.278,0,0,1,3.2-.538c.421,0,1.709,0,1.709,1.394v.609h-1.792c-3.266,0-4.788,1.037-4.788,3.277,0,1.908,1.394,3.056,3.747,3.056a12.064,12.064,0,0,0,2.593-.351l.047-.012.047.012.281.047c.924.163,1.862.328,2.786.519v-7.306c.012-2.388-1.417-3.582-4.226-3.582" transform="translate(-264.156 -258.272)" fill="#27292d"/>
  <path id="Path_632" data-name="Path 632" d="M255.452,278.536a7.9,7.9,0,0,0-3.172.7l-.117.058-.105-.082a4.8,4.8,0,0,0-2.844-.691,11.64,11.64,0,0,0-3.36.5c-1,.3-1.381.778-1.381,1.685v8.347h3.111v-7.711l.152-.047a3.963,3.963,0,0,1,1.37-.246,1.232,1.232,0,0,1,1.357,1.417v6.6h3.067v-6.731a2.269,2.269,0,0,0-.093-.679l-.105-.2.211-.093a3.694,3.694,0,0,1,1.522-.316,1.241,1.241,0,0,1,1.357,1.417v6.6h3.056v-6.91c0-2.446-1.311-3.63-4.027-3.63" transform="translate(-200.255 -258.319)" fill="#27292d"/>
  <path id="Path_633" data-name="Path 633" d="M379.285,189.542a10.616,10.616,0,0,1-1.815-.163l-.175-.035v-4.506a2.206,2.206,0,0,0-.082-.648L377.12,184l.2-.082c.047-.023.093-.035.152-.058l.035-.023.21-.07a.294.294,0,0,1,.082-.023,7.275,7.275,0,0,1,1.6-.187h.012c1.908,0,2.13,1.7,2.13,2.974-.012,2.481-1.241,3.009-2.26,3.009m-.012-8.57h-.082c-1.792,0-3.63.491-4.278,1.452a2.929,2.929,0,0,0-.563,1.744h0v4.648a1.379,1.379,0,0,1-.093.586l-.105.2H368.5V186.37h-.012c-.07-3.407-2.083-5.279-5-5.279h-2.844c-.117.831-.211,1.417-.328,2.248h2.833c1.487,0,2.271,1.264,2.271,3.207V189.8l-.2-.105a2.149,2.149,0,0,0-.668-.093H359.66c-.093.62-.211,1.426-.34,2.236h15.039c.519-.1,1.112-.2,1.627-.281a8.471,8.471,0,0,0,3.149.573,5.585,5.585,0,0,0,.141-11.156" transform="translate(-291.31 -180.972)" fill="#27292d"/>
  <path id="Path_634" data-name="Path 634" d="M261.842,193.7h.14c3.266,0,4.788-1.077,4.788-3.734a3.42,3.42,0,0,0-3.734-3.43h-3.008a1.3,1.3,0,0,1-1.44-1.381c0-.585.223-1.311,1.7-1.311h6.58c.14-.854.21-1.394.34-2.248h-6.836c-3.184,0-4.788,1.334-4.788,3.559,0,2.2,1.394,3.347,3.734,3.347h3.009a1.426,1.426,0,0,1,1.44,1.464,1.47,1.47,0,0,1-1.685,1.51h-.5l-9.634-.023h-1.755c-1.487,0-2.528-.843-2.528-2.8v-1.348c0-2.037.808-3.3,2.528-3.3h2.852c.13-.866.211-1.417.328-2.236h-3.9c-2.914,0-4.927,1.955-5,5.361h0v1.522c.07,3.407,2.083,5.034,5,5.034h2.844l5.221.012h4.308Z" transform="translate(-200.254 -181.465)" fill="#27292d"/>
</svg>
