<svg xmlns="http://www.w3.org/2000/svg" xmlns:xlink="http://www.w3.org/1999/xlink" width="138" height="101" viewBox="0 0 138 101">
  <defs>
    <clipPath id="clip-path">
      <rect id="Rectangle_7364" data-name="Rectangle 7364" width="138" height="101" fill="#fff" stroke="#707070" stroke-width="1"/>
    </clipPath>
  </defs>
  <g id="paypal" clip-path="url(#clip-path)">
    <g id="paypal-seeklogo.com" transform="translate(0 33.782)">
      <path id="Path_11019" data-name="Path 11019" d="M66.294,137.849h9.43c5.063,0,6.969,2.563,6.675,6.329-.487,6.217-4.245,9.657-9.231,9.657H70.651c-.684,0-1.144.453-1.329,1.68l-1.069,7.132c-.071.462-.314.73-.679.767H61.65c-.557,0-.755-.426-.609-1.349L64.653,139.2A1.437,1.437,0,0,1,66.294,137.849Z" transform="translate(-54.252 -129.979)" fill="#009ee3" fill-rule="evenodd"/>
      <path id="Path_11020" data-name="Path 11020" d="M122.9,137.229c3.182,0,6.117,1.726,5.716,6.027-.487,5.112-3.225,7.941-7.546,7.953H117.3c-.543,0-.806.443-.947,1.351l-.73,4.642c-.11.7-.47,1.047-1,1.047H111.1c-.56,0-.755-.358-.63-1.159l2.9-18.605c.144-.915.487-1.256,1.112-1.256h8.408Zm-5.721,9.961h2.86c1.789-.068,2.977-1.307,3.1-3.542a2.161,2.161,0,0,0-2.342-2.361l-2.692.012-.923,5.891Zm20.986,9.635c.321-.292.648-.443.6-.083l-.114.862c-.058.45.119.689.538.689h3.121c.526,0,.781-.212.91-1.025l1.923-12.069c.1-.606-.051-.9-.511-.9H141.2c-.309,0-.46.173-.54.645l-.127.742c-.066.387-.243.455-.409.066-.582-1.378-2.067-2-4.138-1.947-4.813.1-8.057,3.754-8.406,8.437a5.8,5.8,0,0,0,5.75,6.468,6.172,6.172,0,0,0,4.844-1.874h0Zm-2.614-1.857a3.136,3.136,0,0,1-3.216-3.678,4.48,4.48,0,0,1,4.309-3.678,3.136,3.136,0,0,1,3.216,3.678,4.478,4.478,0,0,1-4.309,3.678Zm15.7-10.711h-3.165c-.652,0-.918.487-.711,1.086l3.929,11.5-3.853,5.475c-.324.458-.073.874.382.874h3.556a1.088,1.088,0,0,0,1.056-.518l12.084-17.332c.372-.533.2-1.093-.414-1.093h-3.367c-.577,0-.808.229-1.139.708l-5.039,7.3-2.252-7.32a.964.964,0,0,0-1.066-.686Z" transform="translate(-69.918 -129.783)" fill="#113984" fill-rule="evenodd"/>
      <path id="Path_11021" data-name="Path 11021" d="M202.241,137.227c3.182,0,6.117,1.726,5.716,6.027-.487,5.112-3.225,7.941-7.546,7.953h-3.773c-.543,0-.806.443-.947,1.351l-.73,4.642c-.11.7-.47,1.047-1,1.047h-3.513c-.56,0-.755-.358-.63-1.159l2.9-18.61c.144-.915.487-1.256,1.112-1.256h8.408Zm-5.721,9.961h2.86c1.789-.068,2.977-1.307,3.1-3.542a2.161,2.161,0,0,0-2.342-2.361l-2.692.012-.923,5.891Zm20.986,9.635c.321-.292.648-.443.6-.083l-.114.862c-.058.45.119.689.538.689h3.121c.526,0,.781-.212.91-1.025l1.923-12.069c.1-.606-.051-.9-.511-.9h-3.427c-.309,0-.46.173-.54.645l-.127.742c-.066.387-.243.455-.409.066-.582-1.378-2.067-2-4.138-1.947-4.813.1-8.057,3.754-8.405,8.437a5.8,5.8,0,0,0,5.75,6.468,6.172,6.172,0,0,0,4.844-1.874h0Zm-2.612-1.857a3.136,3.136,0,0,1-3.216-3.678,4.48,4.48,0,0,1,4.309-3.678,3.136,3.136,0,0,1,3.216,3.678,4.48,4.48,0,0,1-4.309,3.678Zm14.394,3.345h-3.6a.426.426,0,0,1-.441-.487l3.165-20.049a.621.621,0,0,1,.6-.487h3.6a.426.426,0,0,1,.441.487l-3.165,20.049a.621.621,0,0,1-.6.492Z" transform="translate(-95.056 -129.781)" fill="#009ee3" fill-rule="evenodd"/>
      <path id="Path_11022" data-name="Path 11022" d="M57.269,126.33h9.44c2.658,0,5.813.085,7.921,1.947a6.4,6.4,0,0,1,1.979,5.355c-.579,7.208-4.89,11.246-10.674,11.246H61.281c-.794,0-1.317.526-1.541,1.947l-1.3,8.276c-.085.536-.316.852-.73.891H51.884c-.645,0-.874-.487-.706-1.563L55.365,127.9A1.675,1.675,0,0,1,57.269,126.33Z" transform="translate(-51.125 -126.33)" fill="#113984" fill-rule="evenodd"/>
      <path id="Path_11023" data-name="Path 11023" d="M63.934,149.635,65.582,139.2a1.442,1.442,0,0,1,1.643-1.353h9.43a9.2,9.2,0,0,1,3.812.694c-.947,6.417-5.1,9.98-10.531,9.98H65.29A1.373,1.373,0,0,0,63.934,149.635Z" transform="translate(-55.184 -129.978)" fill="#172c70" fill-rule="evenodd"/>
    </g>
  </g>
</svg>
