<svg id="snapchat" xmlns="http://www.w3.org/2000/svg" xmlns:xlink="http://www.w3.org/1999/xlink" width="32" height="32" viewBox="0 0 32 32">
  <defs>
    <linearGradient id="linear-gradient" x1="0.146" y1="0.344" x2="1.002" y2="0.779" gradientUnits="objectBoundingBox">
      <stop offset="0" stop-color="#fff" stop-opacity="0.2"/>
      <stop offset="1" stop-color="#fff" stop-opacity="0"/>
    </linearGradient>
  </defs>
  <rect id="Rectangle_7232" data-name="Rectangle 7232" width="32" height="32" fill="rgba(255,255,255,0)"/>
  <g id="Group_1452" data-name="Group 1452" transform="translate(20391 15853)">
    <path id="Path_889" data-name="Path 889" d="M14,0A14,14,0,1,0,28,14,14,14,0,0,0,14,0Z" transform="translate(-20389 -15851)" fill="#fff"/>
    <g id="Group_1451" data-name="Group 1451" transform="translate(68 -27)">
      <g id="Group_1338" data-name="Group 1338" transform="translate(-30500.916 -6904.917)">
        <g id="Group_1337" data-name="Group 1337" transform="translate(10047.917 -8914.083)">
          <path id="Path_988" data-name="Path 988" d="M19.824,14.875a6.29,6.29,0,0,1-4.255-3.337.015.015,0,0,1,0-.007l1.84-1.434a1.26,1.26,0,0,0-1-2.231L15.122,8.1A6.56,6.56,0,0,0,13.937,2.7,4.943,4.943,0,0,0,10.081,1,4.943,4.943,0,0,0,6.225,2.7a6.56,6.56,0,0,0-1.18,5.407c-.55-.1-1.283-.238-1.283-.238a1.255,1.255,0,0,0-1.014,2.221l1.847,1.434A6.283,6.283,0,0,1,.338,14.875L0,14.963l.025.349a1.151,1.151,0,0,0,.389.822,2.557,2.557,0,0,0,1.872.286,4.889,4.889,0,0,1,.763-.037,1.856,1.856,0,0,1,.327,1v.42h2.1a4.16,4.16,0,0,1,1.672.669,6.156,6.156,0,0,0,2.937,1.011,6.156,6.156,0,0,0,2.937-1.011A4.16,4.16,0,0,1,14.69,17.8l2.092,0,0-.417a1.879,1.879,0,0,1,.293-.969,2.757,2.757,0,0,1,.8.007,2.557,2.557,0,0,0,1.872-.286,1.151,1.151,0,0,0,.389-.822l.025-.349Z" transform="translate(0 -1)" fill="#1dbbbe"/>
          <path id="Path_989" data-name="Path 989" d="M15.526,2.575A5.706,5.706,0,0,0,11.391,1,5.706,5.706,0,0,0,7.256,2.576,5.067,5.067,0,0,0,5.862,6.243,5.021,5.021,0,0,1,7.256,2.77a5.706,5.706,0,0,1,4.135-1.576,5.706,5.706,0,0,1,4.134,1.575,5.031,5.031,0,0,1,1.4,3.47A5.076,5.076,0,0,0,15.526,2.575Z" transform="translate(-1.31 -1)" fill="#fff" opacity="0.2"/>
          <path id="Path_990" data-name="Path 990" d="M2.756,9.946a1.142,1.142,0,0,0-.044.459,1.14,1.14,0,0,1,.044-.265,1.158,1.158,0,0,1,1.325-.77s.678.129,1.186.22c-.011-.067-.015-.132-.024-.2-.505-.091-1.162-.216-1.162-.216A1.158,1.158,0,0,0,2.756,9.946Z" transform="translate(-0.605 -2.263)" fill="#fff" opacity="0.2"/>
          <path id="Path_991" data-name="Path 991" d="M20.507,9.942a1.167,1.167,0,0,0-1.317-.776l-1.165.209c-.009.067-.013.131-.024.2l1.189-.213a1.167,1.167,0,0,1,1.317.776,1.146,1.146,0,0,1,.044.266A1.149,1.149,0,0,0,20.507,9.942Z" transform="translate(-2.497 -2.262)" fill="#fff" opacity="0.2"/>
          <path id="Path_992" data-name="Path 992" d="M19.51,17.749a1.064,1.064,0,0,1-.359.76,2.364,2.364,0,0,1-1.731.264,2.548,2.548,0,0,0-.737-.006,1.736,1.736,0,0,0-.271.9l0,.385-1.933,0a3.845,3.845,0,0,0-1.545.619,5.69,5.69,0,0,1-2.715.934A5.69,5.69,0,0,1,7.5,20.668a3.845,3.845,0,0,0-1.545-.619H4.019v.194H5.956a3.845,3.845,0,0,1,1.545.619,5.69,5.69,0,0,0,2.715.934,5.69,5.69,0,0,0,2.715-.934,3.845,3.845,0,0,1,1.545-.619l1.933,0,0-.385a1.736,1.736,0,0,1,.271-.9,2.548,2.548,0,0,1,.737.006,2.364,2.364,0,0,0,1.731-.264,1.064,1.064,0,0,0,.359-.76l.023-.323-.014,0Z" transform="translate(0.629 -3.315)" fill="#010101" opacity="0.1"/>
          <path id="Path_993" data-name="Path 993" d="M.023,17.943a1.064,1.064,0,0,0,.359.76,2.363,2.363,0,0,0,1.731.264,4.519,4.519,0,0,1,.7-.034,1.715,1.715,0,0,1,.3.922v-.194a1.715,1.715,0,0,0-.3-.922,4.519,4.519,0,0,0-.7.034,2.363,2.363,0,0,1-1.731-.264,1.064,1.064,0,0,1-.359-.76l-.01-.133L0,17.62Z" transform="translate(0 -3.315)" fill="#010101" opacity="0.1"/>
          <path id="Path_994" data-name="Path 994" d="M19.824,14.875a6.29,6.29,0,0,1-4.255-3.337.015.015,0,0,1,0-.007l1.84-1.434a1.26,1.26,0,0,0-1-2.231L15.122,8.1A6.56,6.56,0,0,0,13.937,2.7,4.943,4.943,0,0,0,10.081,1,4.943,4.943,0,0,0,6.225,2.7a6.56,6.56,0,0,0-1.18,5.407c-.55-.1-1.283-.238-1.283-.238a1.255,1.255,0,0,0-1.014,2.221l1.847,1.434A6.283,6.283,0,0,1,.338,14.875L0,14.963l.025.349a1.151,1.151,0,0,0,.389.822,2.557,2.557,0,0,0,1.872.286,4.889,4.889,0,0,1,.763-.037,1.856,1.856,0,0,1,.327,1v.42h2.1a4.16,4.16,0,0,1,1.672.669,6.156,6.156,0,0,0,2.937,1.011,6.156,6.156,0,0,0,2.937-1.011A4.16,4.16,0,0,1,14.69,17.8l2.092,0,0-.417a1.879,1.879,0,0,1,.293-.969,2.757,2.757,0,0,1,.8.007,2.557,2.557,0,0,0,1.872-.286,1.151,1.151,0,0,0,.389-.822l.025-.349Z" transform="translate(-0.001 -0.999)" fill="url(#linear-gradient)"/>
        </g>
      </g>
    </g>
  </g>
</svg>
