<svg id="comparison" xmlns="http://www.w3.org/2000/svg" width="36" height="36" viewBox="0 0 36 36">
  <circle id="Ellipse_280" data-name="Ellipse 280" cx="18" cy="18" r="18" fill="#1dbbbe"/>
  <path id="comparison-svgrepo-com" d="M4.208,1.6a3.208,3.208,0,0,1,1.82,5.851l-.216.136v6.846a4.813,4.813,0,0,0,2.932,4.431l.276.107V16.041l4.812,4.812L9.021,25.666V22.3a8.024,8.024,0,0,1-6.408-7.5L2.6,14.437V7.591A3.209,3.209,0,0,1,4.208,1.6ZM15.437,0V3.369a8.023,8.023,0,0,1,6.417,7.86v6.846a3.208,3.208,0,1,1-3.208,0V11.229A4.814,4.814,0,0,0,15.437,6.69V9.625L10.625,4.812Z" transform="translate(5.771 5.667)" fill="#f7fcff" fill-rule="evenodd"/>
</svg>
